<?xml version="1.0" encoding="utf-8"?>
<!-- Generator: Adobe Illustrator 26.0.2, SVG Export Plug-In . SVG Version: 6.00 Build 0)  -->
<svg version="1.1" id="Layer_1" xmlns="http://www.w3.org/2000/svg" xmlns:xlink="http://www.w3.org/1999/xlink" x="0px" y="0px"
	 viewBox="0 0 435 510" style="enable-background:new 0 0 435 510;" xml:space="preserve">
<style type="text/css">
	.st0{fill:#F5F7F8;}
	.st1{fill:none;}
	.st2{fill:#6388BF;}
	.st3{font-family:'FontAwesome5FreeSolid';}
	.st4{font-size:14px;}
	.st5{fill:#0370B5;}
	.st6{font-family:'MyriadPro-Regular';}
	.st7{letter-spacing:1;}
	.st8{fill:#3A3A3A;}
	.st9{font-family:'Roboto-Bold';}
	.st10{letter-spacing:7;}
	.st11{fill:#151A1E;}
	.st12{fill:#FFFFFF;}
	.st13{fill:#DFE2E5;}
	.st14{fill:#E0E8E5;}
</style>
<path class="st0" d="M401.7,509.7H33.3c-18.1,0-32.8-10.9-32.8-24.3V24c0-13.4,14.7-24.3,32.8-24.3h368.4
	c18.1,0,32.8,10.9,32.8,24.3v461.4C434.5,498.8,419.8,509.7,401.7,509.7z"/>
<rect x="68.5" y="327" class="st1" width="355.3" height="166.5"/>
<text transform="matrix(1 0 0 1 68.5391 338.7917)" class="st2 st3 st4"></text>
<text transform="matrix(1 0 0 1 75.5391 338.7917)" class="st5 st6 st4 st7"> </text>
<text transform="matrix(1 0 0 1 82.5391 338.7917)" class="st8 st9 st4">We only use the highest quality products.</text>
<text transform="matrix(1 0 0 1 68.5391 372.3917)" class="st2 st3 st4"></text>
<text transform="matrix(1 0 0 1 75.4391 372.3917)" class="st5 st6 st4 st7"> </text>
<text transform="matrix(1 0 0 1 82.5391 372.3917)" class="st8 st9 st4">Our products are backed up by lifetime warranties. </text>
<text transform="matrix(1 0 0 1 68.5391 405.9917)" class="st2 st3 st4"></text>
<text transform="matrix(1 0 0 1 75.5391 405.9917)" class="st5 st3 st4"> </text>
<text transform="matrix(1 0 0 1 82.5391 405.9917)" class="st8 st9 st4">We&apos;ve been in the pet door business for</text>
<text transform="matrix(1 0 0 1 68.5391 422.7917)" class="st5 st9 st4 st10"> </text>
<text transform="matrix(1 0 0 1 82.5391 422.7917)" class="st8 st9 st4">10 years and have installed over 600 pet doors.</text>
<text transform="matrix(1 0 0 1 68.5391 456.3917)" class="st2 st3 st4"></text>
<text transform="matrix(1 0 0 1 75.5391 456.3917)" class="st5 st6 st4 st7"> </text>
<text transform="matrix(1 0 0 1 82.5391 456.3917)" class="st8 st9 st4">We handle every detail to ensure you have the </text>
<text transform="matrix(1 0 0 1 68.5391 473.1917)" class="st5 st9 st4 st10"> </text>
<text transform="matrix(1 0 0 1 82.5391 473.1917)" class="st8 st9 st4">best solution for you and your pet.</text>
<g>
	<g>
		<path class="st11" d="M217.5,300.8c-78.2,0-141.7-63.6-141.7-141.7c0-78.2,63.6-141.7,141.7-141.7c78.2,0,141.7,63.6,141.7,141.7
			C359.2,237.2,295.7,300.8,217.5,300.8L217.5,300.8z M217.5,19C140.2,19,77.4,81.8,77.4,159.1c0,77.3,62.9,140.1,140.1,140.1
			c77.3,0,140.1-62.9,140.1-140.1C357.6,81.8,294.8,19,217.5,19L217.5,19z"/>
	</g>
	<g>
		
			<ellipse transform="matrix(0.1433 -0.9897 0.9897 0.1433 28.8812 351.5365)" class="st12" cx="217.5" cy="159.1" rx="134.9" ry="134.9"/>
		<path class="st11" d="M217.5,294.8c-74.9,0-135.8-60.9-135.8-135.8c0-74.9,60.9-135.8,135.8-135.8c74.9,0,135.8,60.9,135.8,135.8
			C353.3,233.9,292.4,294.8,217.5,294.8L217.5,294.8z M217.5,25c-74,0-134.1,60.2-134.1,134.1c0,74,60.2,134.1,134.1,134.1
			c74,0,134.1-60.2,134.1-134.1C351.6,85.1,291.5,25,217.5,25L217.5,25z"/>
	</g>
	
		<ellipse transform="matrix(0.1433 -0.9897 0.9897 0.1433 28.8794 351.5348)" class="st13" cx="217.5" cy="159.1" rx="130" ry="130"/>
	<g>
		<g>
			<g>
				<path class="st12" d="M129.7,100.9c1.2,0.9,2.9,0.8,3.8-0.6c0.9-1.2,0.8-2.7-0.5-3.6c-1.5-1-2.8,0.1-4,1c-1.1,0.9-2,1.6-3.3,2
					c-1.5,0.5-3.1,0.3-4.4-0.7c-2.5-1.7-2.8-5.1-1.1-7.5c0.7-1,1.8-1.8,3-1.8l-0.8-0.6l1.5-2.2l4,2.8l-1.8,2.6
					c-1.1-0.8-2.5-0.5-3.3,0.6c-0.8,1.1-0.7,2.5,0.4,3.3c1.5,1,2.7,0,3.8-1c1.1-0.9,2.2-1.8,3.6-2.2c1.5-0.4,2.9-0.2,4.2,0.7
					c2.7,1.9,3.3,5.3,1.4,8c-0.8,1.2-1.9,1.9-3.3,2l1,0.7l-1.6,2.3l-4.4-3.1L129.7,100.9z"/>
				<path class="st12" d="M147.4,84.3l1.4-1.4l-2.7-1.2l-4.6,4.5l1.2,2.7l1.4-1.4l1.8,1.8l-5.3,5.2l-2-2.1l1.4-1.4l-4.9-12.6
					l-1.4,1.4l-2-2.1l4.4-4.3l15.3,6.5l1.4-1.4l2,2.1l-5.5,5.4L147.4,84.3z M137.7,77.6L137.7,77.6l2.7,6.1l3.3-3.3L137.7,77.6z"/>
				<path class="st12" d="M160.8,73.3l1.6-1.1l1.7,2.4l-6.2,4.2l-1.6-2.4l1.6-1.1L151,65.2l-2.2,1.5l1.5,2.2l-2.3,1.6l-3.3-4.7
					l11.8-8.1l3.3,4.7l-2.3,1.6l-1.5-2.2l-2.2,1.5L160.8,73.3z"/>
				<path class="st12" d="M173.3,66.3l1.8-0.9l1.3,2.6l-6.7,3.3l-1.3-2.6l1.8-0.9l-5.5-11.1l-1.8,0.9l-1.3-2.6l6.7-3.3l1.3,2.6
					l-1.8,0.9L173.3,66.3z"/>
				<path class="st12" d="M180.6,60.4c0.5,1.4,1.9,2.3,3.5,1.8c1.4-0.5,2.2-1.8,1.7-3.2c-0.6-1.7-2.4-1.6-3.8-1.5
					c-1.4,0.1-2.6,0.1-3.9-0.3c-1.5-0.5-2.7-1.6-3.2-3.1c-1-2.9,0.7-5.8,3.5-6.8c1.2-0.4,2.5-0.4,3.5,0.3l-0.3-1l2.5-0.9l1.6,4.6
					l-2.9,1c-0.5-1.3-1.7-1.9-3-1.5c-1.3,0.4-2.1,1.6-1.6,3c0.6,1.7,2.2,1.5,3.7,1.5c1.5-0.1,2.8-0.2,4.2,0.3c1.4,0.5,2.5,1.6,3,3
					c1.1,3.1-0.5,6.2-3.6,7.3c-1.3,0.5-2.6,0.4-3.8-0.3l0.4,1.1l-2.6,0.9l-1.8-5.1L180.6,60.4z"/>
				<path class="st12" d="M193.1,46.4l-2,0.3l-0.5-2.9l13.4-2.3l0.9,5.4l-3.4,0.6l-0.4-2.3l-4.6,0.8l0.8,4.6l5.2-0.9l0.5,2.6
					l-5.2,0.9l0.8,4.8l2-0.3l0.5,2.9l-7.4,1.3l-0.5-2.9l2-0.3L193.1,46.4z"/>
				<path class="st12" d="M219.5,56.6l2,0l-1.1-2.7L214,54l-1,2.8l2,0l0,2.6l-7.4,0.1l0-2.9l1.9,0l5.1-12.5l-2,0l0-2.9l6.1-0.1
					l6.6,15.2l1.9,0l0,2.9l-7.7,0.1L219.5,56.6z M217.1,45L217.1,45l-2.2,6.3l4.7-0.1L217.1,45z"/>
				<path class="st12" d="M246.4,50.3c-0.6-1.9-2.4-3.4-4.3-3.8c-3.4-0.7-6.4,1.3-7.1,4.6c-0.7,3.2,1.3,6.4,4.5,7.1
					c2.1,0.4,4.1-0.1,5.6-1.6l3.7,0.8c-2,3.4-6.2,5.2-10,4.4c-2.4-0.5-4.6-2.1-6-4.2c-1.4-2.2-1.8-4.8-1.3-7.3c1.1-5,6-8.4,11.1-7.3
					c2.1,0.4,3.9,1.6,5.1,3.4l0.4-1.8l2.8,0.6l-1.2,5.7L246.4,50.3z"/>
				<path class="st12" d="M259.5,65.2l1.8,0.8l-1.1,2.7l-6.9-2.9l1.1-2.7l1.8,0.8l4.8-11.3l-2.5-1.1l-1,2.4l-2.5-1.1l2.3-5.3
					l13.2,5.6l-2.3,5.3l-2.5-1.1l1-2.4l-2.5-1.1L259.5,65.2z"/>
				<path class="st12" d="M272.1,72l1.7,1l-1.5,2.5l-6.4-3.9l1.5-2.5l1.7,1l6.4-10.6l-1.7-1l1.5-2.5l6.4,3.9l-1.5,2.5l-1.7-1
					L272.1,72z"/>
				<path class="st12" d="M281,70c3.5-4.1,9.5-4.5,13.6-1c3.9,3.4,4.5,9.4,1.1,13.4c-3.5,4.1-9.5,4.6-13.6,1.1
					C278.1,80,277.6,74,281,70z M292.9,80c2.1-2.5,1.8-6.3-0.6-8.4c-2.5-2.2-6.3-1.9-8.5,0.7c-2.2,2.6-2,6.4,0.6,8.6
					C287,83,290.7,82.6,292.9,80z"/>
				<path class="st12" d="M301.8,105l-2-2.6l4.4-14.1l-7.3,5.5l1.2,1.6l-2.3,1.8l-4.5-5.9l2.3-1.8l1.2,1.6l9.9-7.5l-1.2-1.6l2.3-1.8
					l3.1,4.1l-4.5,14.3l7.4-5.6l-1.2-1.6l2.3-1.8l4.5,5.9l-2.3,1.8l-1.2-1.6L301.8,105z"/>
			</g>
			<g>
				<path class="st12" d="M147.1,238c0.1-1,0-2-0.3-2.9c-0.3-0.9-0.8-1.7-1.5-2.4c-2.3-2.3-6-2.3-8.4,0c-2.3,2.3-2.4,6,0,8.4
					c1.9,1.9,4.7,2.3,7,0.9l-5-4.9l0.9-0.9l6.1,6l-4.6,4.7l-0.9-0.9l2.3-2.3c-2.4,0.8-4.9,0.1-6.7-1.7c-1.7-1.7-2.5-4.5-1.9-6.8
					c0.2-0.7,0.7-2.3,1.9-3.5c1.4-1.5,3.3-2.2,5-2.2c2,0,3.9,0.7,5.3,2.2c1.4,1.3,2.1,3.2,2,5.1l1.3-1.3l0.9,0.9L148,239L147.1,238z
					"/>
				<path class="st12" d="M158.5,253.8c-0.7,1.1-1.5,1.9-2.9,2.2c-1.3,0.3-2.6,0-3.7-0.7c-1.1-0.7-1.8-1.8-2-3.1
					c-0.2-1.5,0.3-2.5,1.1-3.7l4.4-6.5l-1.5-1l0.7-1.1l4,2.7l-0.7,1.1l-1.4-1l-4.4,6.4c-0.5,0.8-1,1.5-1,2.5c0,1,0.6,1.9,1.4,2.5
					c0.8,0.5,1.7,0.8,2.6,0.5c1-0.3,1.6-1,2.1-1.9l4.4-6.4l-1.4-1l0.7-1.1l4,2.7l-0.7,1.1l-1.5-1L158.5,253.8z"/>
				<path class="st12" d="M173.4,266.6l0.5-1.2l1.7,0.7l0-3.5l-5.9-2.6l-2.6,2.4l1.6,0.7l-0.5,1.2l-4.6-2l0.5-1.2l1.6,0.7l9.2-8.4
					l-1.7-0.7l0.5-1.2l3.4,1.5l-0.1,13.8l1.6,0.7l-0.5,1.2L173.4,266.6z M175.9,254.1l-5.3,5l5.2,2.3L175.9,254.1z"/>
				<path class="st12" d="M196.2,273.4l-2.7-0.6l-2.8-6.9l0.5,0.1c1,0.2,2,0.5,3,0.2c1.1-0.4,1.9-1.3,2.2-2.4c0.2-1,0.1-1.9-0.4-2.7
					c-0.6-0.9-1.5-1.2-2.5-1.4l-2.7-0.6l-2.7,11.1l1.6,0.4l-0.3,1.3l-4.7-1.1l0.3-1.3l1.8,0.4l2.7-11.1l-1.8-0.4l0.3-1.3l5.9,1.4
					c1.3,0.3,2.4,0.7,3.2,1.8c0.8,1.1,1,2.5,0.7,3.8c-0.6,2.3-2.8,3.8-5.1,3.2l2,4.4l1.8,0.4L196.2,273.4z"/>
				<path class="st12" d="M213.6,275.2l0.1-1.3l1.8,0.1l-1.2-3.3l-6.5-0.4l-1.6,3.1l1.8,0.1l-0.1,1.3l-5-0.3l0.1-1.3l1.7,0.1
					l5.7-11.1l-1.9-0.1l0.1-1.3l3.7,0.2l4.8,13l1.7,0.1l-0.1,1.3L213.6,275.2z M211.5,262.6l-3.2,6.6l5.7,0.3L211.5,262.6z"/>
				<path class="st12" d="M238.9,273.4l-1.4,0.2l-9.9-10.5l1.4,10.3l1.8-0.2l0.2,1.3l-5,0.7l-0.2-1.3l1.8-0.2l-1.5-11.3l-1.8,0.2
					l-0.2-1.3l3.2-0.4l9.9,10.5l-1.4-10.4l-1.8,0.2l-0.2-1.3l4.9-0.7l0.2,1.3l-1.8,0.2L238.9,273.4z"/>
				<path class="st12" d="M252.4,268.5l1.7-0.5l0.4,1.2l-4.8,1.5l-0.4-1.2l1.7-0.5l-3.4-10.9l-2.9,0.9l0.7,2.3l-1.2,0.4l-1.1-3.6
					l9.5-2.9l1.1,3.6l-1.2,0.4l-0.7-2.3l-2.9,0.9L252.4,268.5z"/>
				<path class="st12" d="M269.9,258.8l1.5,3.3l-8.9,4.2l-0.6-1.2l1.6-0.8l-4.9-10.3l-1.6,0.8l-0.6-1.2l8.9-4.2l1.5,3.3l-1.3,0.6
					l-1-2.1l-4.8,2.2l2.2,4.6l4.9-2.3l0.5,1l-4.9,2.3l2.2,4.7l4.7-2.2l-1-2.1L269.9,258.8z"/>
				<path class="st12" d="M283.4,250.4l2,3l-8.2,5.4l-0.7-1.1l1.5-1l-6.3-9.5l-1.5,1l-0.7-1.1l8.2-5.4l2,3l-1.2,0.8l-1.3-1.9
					l-4.4,2.9l2.8,4.2l4.5-3l0.6,1l-4.5,3l2.9,4.3l4.4-2.9l-1.3-1.9L283.4,250.4z"/>
				<path class="st12" d="M283.7,238.7l-1.3,1.2l-0.9-1l4.6-4.2c1.5-1.3,2.9-2,5-2c1.9,0.1,3.7,1,5,2.4c1.2,1.4,1.9,3.2,1.9,5
					c0,2.1-0.9,3.5-2.4,4.9l-4.6,4.2l-0.9-1l1.3-1.2L283.7,238.7z M294.5,244.3c1.2-1.1,2.1-2.3,2.1-4c0-1.5-0.6-3.1-1.6-4.2
					c-1.1-1.2-2.6-2-4.2-2c-1.7,0-2.7,0.6-4,1.7l-2.1,1.9l7.7,8.4L294.5,244.3z"/>
			</g>
		</g>
		<g>
			<g>
				<path class="st11" d="M129.7,100.9c1.2,0.9,2.9,0.8,3.8-0.6c0.9-1.2,0.8-2.7-0.5-3.6c-1.5-1-2.8,0.1-4,1c-1.1,0.9-2,1.6-3.3,2
					c-1.5,0.5-3.1,0.3-4.4-0.7c-2.5-1.7-2.8-5.1-1.1-7.5c0.7-1,1.8-1.8,3-1.8l-0.8-0.6l1.5-2.2l4,2.8l-1.8,2.6
					c-1.1-0.8-2.5-0.5-3.3,0.6c-0.8,1.1-0.7,2.5,0.4,3.3c1.5,1,2.7,0,3.8-1c1.1-0.9,2.2-1.8,3.6-2.2c1.5-0.4,2.9-0.2,4.2,0.7
					c2.7,1.9,3.3,5.3,1.4,8c-0.8,1.2-1.9,1.9-3.3,2l1,0.7l-1.6,2.3l-4.4-3.1L129.7,100.9z"/>
				<path class="st11" d="M147.4,84.3l1.4-1.4l-2.7-1.2l-4.6,4.5l1.2,2.7l1.4-1.4l1.8,1.8l-5.3,5.2l-2-2.1l1.4-1.4l-4.9-12.6
					l-1.4,1.4l-2-2.1l4.4-4.3l15.3,6.5l1.4-1.4l2,2.1l-5.5,5.4L147.4,84.3z M137.7,77.6L137.7,77.6l2.7,6.1l3.3-3.3L137.7,77.6z"/>
				<path class="st11" d="M160.8,73.3l1.6-1.1l1.7,2.4l-6.2,4.2l-1.6-2.4l1.6-1.1L151,65.2l-2.2,1.5l1.5,2.2l-2.3,1.6l-3.3-4.7
					l11.8-8.1l3.3,4.7l-2.3,1.6l-1.5-2.2l-2.2,1.5L160.8,73.3z"/>
				<path class="st11" d="M173.3,66.3l1.8-0.9l1.3,2.6l-6.7,3.3l-1.3-2.6l1.8-0.9l-5.5-11.1l-1.8,0.9l-1.3-2.6l6.7-3.3l1.3,2.6
					l-1.8,0.9L173.3,66.3z"/>
				<path class="st11" d="M180.6,60.4c0.5,1.4,1.9,2.3,3.5,1.8c1.4-0.5,2.2-1.8,1.7-3.2c-0.6-1.7-2.4-1.6-3.8-1.5
					c-1.4,0.1-2.6,0.1-3.9-0.3c-1.5-0.5-2.7-1.6-3.2-3.1c-1-2.9,0.7-5.8,3.5-6.8c1.2-0.4,2.5-0.4,3.5,0.3l-0.3-1l2.5-0.9l1.6,4.6
					l-2.9,1c-0.5-1.3-1.7-1.9-3-1.5c-1.3,0.4-2.1,1.6-1.6,3c0.6,1.7,2.2,1.5,3.7,1.5c1.5-0.1,2.8-0.2,4.2,0.3c1.4,0.5,2.5,1.6,3,3
					c1.1,3.1-0.5,6.2-3.6,7.3c-1.3,0.5-2.6,0.4-3.8-0.3l0.4,1.1l-2.6,0.9l-1.8-5.1L180.6,60.4z"/>
				<path class="st11" d="M193.1,46.4l-2,0.3l-0.5-2.9l13.4-2.3l0.9,5.4l-3.4,0.6l-0.4-2.3l-4.6,0.8l0.8,4.6l5.2-0.9l0.5,2.6
					l-5.2,0.9l0.8,4.8l2-0.3l0.5,2.9l-7.4,1.3l-0.5-2.9l2-0.3L193.1,46.4z"/>
				<path class="st11" d="M219.5,56.6l2,0l-1.1-2.7L214,54l-1,2.8l2,0l0,2.6l-7.4,0.1l0-2.9l1.9,0l5.1-12.5l-2,0l0-2.9l6.1-0.1
					l6.6,15.2l1.9,0l0,2.9l-7.7,0.1L219.5,56.6z M217.1,45L217.1,45l-2.2,6.3l4.7-0.1L217.1,45z"/>
				<path class="st11" d="M246.4,50.3c-0.6-1.9-2.4-3.4-4.3-3.8c-3.4-0.7-6.4,1.3-7.1,4.6c-0.7,3.2,1.3,6.4,4.5,7.1
					c2.1,0.4,4.1-0.1,5.6-1.6l3.7,0.8c-2,3.4-6.2,5.2-10,4.4c-2.4-0.5-4.6-2.1-6-4.2c-1.4-2.2-1.8-4.8-1.3-7.3c1.1-5,6-8.4,11.1-7.3
					c2.1,0.4,3.9,1.6,5.1,3.4l0.4-1.8l2.8,0.6l-1.2,5.7L246.4,50.3z"/>
				<path class="st11" d="M259.5,65.2l1.8,0.8l-1.1,2.7l-6.9-2.9l1.1-2.7l1.8,0.8l4.8-11.3l-2.5-1.1l-1,2.4l-2.5-1.1l2.3-5.3
					l13.2,5.6l-2.3,5.3l-2.5-1.1l1-2.4l-2.5-1.1L259.5,65.2z"/>
				<path class="st11" d="M272.1,72l1.7,1l-1.5,2.5l-6.4-3.9l1.5-2.5l1.7,1l6.4-10.6l-1.7-1l1.5-2.5l6.4,3.9l-1.5,2.5l-1.7-1
					L272.1,72z"/>
				<path class="st11" d="M281,70c3.5-4.1,9.5-4.5,13.6-1c3.9,3.4,4.5,9.4,1.1,13.4c-3.5,4.1-9.5,4.6-13.6,1.1
					C278.1,80,277.6,74,281,70z M292.9,80c2.1-2.5,1.8-6.3-0.6-8.4c-2.5-2.2-6.3-1.9-8.5,0.7c-2.2,2.6-2,6.4,0.6,8.6
					C287,83,290.7,82.6,292.9,80z"/>
				<path class="st11" d="M301.8,105l-2-2.6l4.4-14.1l-7.3,5.5l1.2,1.6l-2.3,1.8l-4.5-5.9l2.3-1.8l1.2,1.6l9.9-7.5l-1.2-1.6l2.3-1.8
					l3.1,4.1l-4.5,14.3l7.4-5.6l-1.2-1.6l2.3-1.8l4.5,5.9l-2.3,1.8l-1.2-1.6L301.8,105z"/>
			</g>
			<g>
				<path class="st11" d="M147.1,238c0.1-1,0-2-0.3-2.9c-0.3-0.9-0.8-1.7-1.5-2.4c-2.3-2.3-6-2.3-8.4,0c-2.3,2.3-2.4,6,0,8.4
					c1.9,1.9,4.7,2.3,7,0.9l-5-4.9l0.9-0.9l6.1,6l-4.6,4.7l-0.9-0.9l2.3-2.3c-2.4,0.8-4.9,0.1-6.7-1.7c-1.7-1.7-2.5-4.5-1.9-6.8
					c0.2-0.7,0.7-2.3,1.9-3.5c1.4-1.5,3.3-2.2,5-2.2c2,0,3.9,0.7,5.3,2.2c1.4,1.3,2.1,3.2,2,5.1l1.3-1.3l0.9,0.9L148,239L147.1,238z
					"/>
				<path class="st11" d="M158.5,253.8c-0.7,1.1-1.5,1.9-2.9,2.2c-1.3,0.3-2.6,0-3.7-0.7c-1.1-0.7-1.8-1.8-2-3.1
					c-0.2-1.5,0.3-2.5,1.1-3.7l4.4-6.5l-1.5-1l0.7-1.1l4,2.7l-0.7,1.1l-1.4-1l-4.4,6.4c-0.5,0.8-1,1.5-1,2.5c0,1,0.6,1.9,1.4,2.5
					c0.8,0.5,1.7,0.8,2.6,0.5c1-0.3,1.6-1,2.1-1.9l4.4-6.4l-1.4-1l0.7-1.1l4,2.7l-0.7,1.1l-1.5-1L158.5,253.8z"/>
				<path class="st11" d="M173.4,266.6l0.5-1.2l1.7,0.7l0-3.5l-5.9-2.6l-2.6,2.4l1.6,0.7l-0.5,1.2l-4.6-2l0.5-1.2l1.6,0.7l9.2-8.4
					l-1.7-0.7l0.5-1.2l3.4,1.5l-0.1,13.8l1.6,0.7l-0.5,1.2L173.4,266.6z M175.9,254.1l-5.3,5l5.2,2.3L175.9,254.1z"/>
				<path class="st11" d="M196.2,273.4l-2.7-0.6l-2.8-6.9l0.5,0.1c1,0.2,2,0.5,3,0.2c1.1-0.4,1.9-1.3,2.2-2.4c0.2-1,0.1-1.9-0.4-2.7
					c-0.6-0.9-1.5-1.2-2.5-1.4l-2.7-0.6l-2.7,11.1l1.6,0.4l-0.3,1.3l-4.7-1.1l0.3-1.3l1.8,0.4l2.7-11.1l-1.8-0.4l0.3-1.3l5.9,1.4
					c1.3,0.3,2.4,0.7,3.2,1.8c0.8,1.1,1,2.5,0.7,3.8c-0.6,2.3-2.8,3.8-5.1,3.2l2,4.4l1.8,0.4L196.2,273.4z"/>
				<path class="st11" d="M213.6,275.2l0.1-1.3l1.8,0.1l-1.2-3.3l-6.5-0.4l-1.6,3.1l1.8,0.1l-0.1,1.3l-5-0.3l0.1-1.3l1.7,0.1
					l5.7-11.1l-1.9-0.1l0.1-1.3l3.7,0.2l4.8,13l1.7,0.1l-0.1,1.3L213.6,275.2z M211.5,262.6l-3.2,6.6l5.7,0.3L211.5,262.6z"/>
				<path class="st11" d="M238.9,273.4l-1.4,0.2l-9.9-10.5l1.4,10.3l1.8-0.2l0.2,1.3l-5,0.7l-0.2-1.3l1.8-0.2l-1.5-11.3l-1.8,0.2
					l-0.2-1.3l3.2-0.4l9.9,10.5l-1.4-10.4l-1.8,0.2l-0.2-1.3l4.9-0.7l0.2,1.3l-1.8,0.2L238.9,273.4z"/>
				<path class="st11" d="M252.4,268.5l1.7-0.5l0.4,1.2l-4.8,1.5l-0.4-1.2l1.7-0.5l-3.4-10.9l-2.9,0.9l0.7,2.3l-1.2,0.4l-1.1-3.6
					l9.5-2.9l1.1,3.6l-1.2,0.4l-0.7-2.3l-2.9,0.9L252.4,268.5z"/>
				<path class="st11" d="M269.9,258.8l1.5,3.3l-8.9,4.2l-0.6-1.2l1.6-0.8l-4.9-10.3l-1.6,0.8l-0.6-1.2l8.9-4.2l1.5,3.3l-1.3,0.6
					l-1-2.1l-4.8,2.2l2.2,4.6l4.9-2.3l0.5,1l-4.9,2.3l2.2,4.7l4.7-2.2l-1-2.1L269.9,258.8z"/>
				<path class="st11" d="M283.4,250.4l2,3l-8.2,5.4l-0.7-1.1l1.5-1l-6.3-9.5l-1.5,1l-0.7-1.1l8.2-5.4l2,3l-1.2,0.8l-1.3-1.9
					l-4.4,2.9l2.8,4.2l4.5-3l0.6,1l-4.5,3l2.9,4.3l4.4-2.9l-1.3-1.9L283.4,250.4z"/>
				<path class="st11" d="M283.7,238.7l-1.3,1.2l-0.9-1l4.6-4.2c1.5-1.3,2.9-2,5-2c1.9,0.1,3.7,1,5,2.4c1.2,1.4,1.9,3.2,1.9,5
					c0,2.1-0.9,3.5-2.4,4.9l-4.6,4.2l-0.9-1l1.3-1.2L283.7,238.7z M294.5,244.3c1.2-1.1,2.1-2.3,2.1-4c0-1.5-0.6-3.1-1.6-4.2
					c-1.1-1.2-2.6-2-4.2-2c-1.7,0-2.7,0.6-4,1.7l-2.1,1.9l7.7,8.4L294.5,244.3z"/>
			</g>
		</g>
	</g>
	<g>
		<path class="st11" d="M300.2,159.1c0,45.7-37,82.7-82.7,82.7c-45.7,0-82.7-37-82.7-82.7c0-45.7,37-82.7,82.7-82.7
			C263.2,76.4,300.2,113.4,300.2,159.1z"/>
		<path class="st11" d="M216.7,245.8L216.7,245.8c-1.1,0-2.1-0.4-2.9-1.2c-0.8-0.8-1.2-1.8-1.2-2.9c0,0,0,0,0,0c0,0,0,0,0,0
			c-0.2,2.2-2.2,3.9-4.5,3.6c-2.2-0.2-3.9-2.3-3.6-4.5c0,0,0,0,0,0c0,0,0,0,0,0c-0.5,2.2-2.7,3.6-4.8,3.2c-1.1-0.2-2-0.8-2.6-1.8
			c-0.6-0.9-0.8-2-0.6-3.1c0,0,0,0,0,0c0,0,0,0,0,0c-0.7,2.1-3,3.3-5.1,2.7c-2.2-0.7-3.3-3-2.7-5.1c0,0,0,0,0-0.1c0,0,0,0,0,0.1
			c-0.9,2-3.3,3-5.4,2.2c-2.1-0.9-3-3.3-2.1-5.4c0,0,0,0,0-0.1c0,0,0,0,0,0.1c-0.7,1.3-2.1,2.1-3.6,2.1c-0.7,0-1.4-0.2-2-0.5
			c-2-1.1-2.7-3.6-1.6-5.6c0,0,0,0,0,0s0,0,0,0c-1.2,1.8-3.9,2.3-5.7,1c-0.9-0.6-1.5-1.6-1.7-2.6c-0.2-1.1,0-2.2,0.7-3.1
			c0,0,0,0,0-0.1c0,0,0,0-0.1,0.1c-0.8,0.9-1.9,1.5-3.1,1.5l0,0c-1,0-1.9-0.3-2.6-1c-0.8-0.7-1.3-1.7-1.4-2.8
			c-0.1-1.1,0.2-2.1,0.9-3c0,0,0,0,0,0c0,0,0,0,0,0c-0.8,0.7-1.8,1.1-2.8,1.1l0,0c-1.1,0-2.2-0.4-2.9-1.2c-0.8-0.8-1.2-1.8-1.2-2.9
			c0-1.1,0.5-2.1,1.2-2.9c0,0,0,0,0.1-0.1c0,0-0.1,0-0.1,0.1c-1.7,1.4-4.4,1.1-5.7-0.7c-0.7-0.8-1-1.9-0.9-3
			c0.1-1.1,0.7-2.1,1.5-2.7c0,0,0,0,0.1-0.1c0,0,0,0-0.1,0c-1.8,1.2-4.5,0.6-5.7-1.2c-0.6-0.9-0.8-2-0.6-3.1c0.2-1.1,0.9-2,1.8-2.6
			c0,0,0,0,0,0c0,0,0,0,0,0c-0.6,0.3-1.2,0.5-1.9,0.5l0,0c-1.5,0-2.9-0.8-3.6-2.2c-0.5-1-0.6-2.1-0.3-3.1c0.3-1,1.1-1.9,2-2.4
			c0,0,0,0,0,0c0,0,0,0,0,0c-0.5,0.2-1,0.3-1.5,0.3c-1.7,0-3.2-1-3.8-2.6c-0.4-1-0.4-2.1,0-3.1c0.4-1,1.2-1.8,2.2-2.2c0,0,0,0,0,0
			c0,0,0,0,0,0c-2.1,0.6-4.4-0.7-5-2.8c-0.6-2.2,0.7-4.4,2.8-5c0,0,0,0,0,0c0,0,0,0,0,0c-2.3,0.4-4.4-1.1-4.8-3.3
			c-0.4-2.2,1.1-4.3,3.3-4.7c0,0,0,0,0,0s0,0,0,0c-0.1,0-0.2,0-0.3,0c-2.1,0-3.9-1.6-4.1-3.8c-0.1-1.1,0.2-2.1,1-3
			c0.7-0.8,1.7-1.3,2.8-1.4c0,0,0,0,0,0l0,0c-1.1,0-2.2-0.5-2.9-1.3c-0.8-0.8-1.2-1.8-1.1-2.9c0-2.3,2-4.1,4.2-4c0,0,0,0-0.1,0
			c-1.1-0.1-2.1-0.7-2.7-1.5c-0.7-0.8-1-1.9-0.8-3c0.3-2.2,2.3-3.8,4.5-3.6c0,0,0,0,0,0c0,0,0,0,0,0c-2.2-0.5-3.6-2.7-3.1-4.9
			c0.5-2.1,2.7-3.6,4.9-3.1c0,0,0,0,0.1,0c0,0,0,0-0.1,0c-1-0.3-1.9-1.1-2.4-2c-0.5-1-0.6-2.1-0.2-3.1c0.7-2.1,3-3.3,5.1-2.6
			c0,0,0,0,0.1,0c0,0,0,0-0.1,0c-1-0.4-1.8-1.2-2.2-2.3c-0.4-1-0.4-2.1,0.1-3.1c0.9-2,3.4-3,5.4-2.1c0,0,0,0,0.1,0c0,0,0,0-0.1,0
			c-0.9-0.5-1.6-1.4-1.9-2.5c-0.3-1-0.2-2.2,0.4-3.1c1.1-1.9,3.7-2.6,5.6-1.6c0,0,0,0,0.1,0c0,0,0,0-0.1,0c-0.9-0.6-1.5-1.6-1.7-2.6
			c-0.2-1.1,0-2.2,0.7-3.1c1.3-1.8,3.9-2.3,5.7-1c0,0,0.1,0,0.1,0.1c0,0,0,0-0.1-0.1c-0.8-0.7-1.3-1.7-1.4-2.8c-0.1-1.1,0.3-2.1,1-3
			c1.4-1.6,4.1-1.8,5.7-0.4c0,0,0,0,0.1,0.1c0,0,0,0-0.1-0.1c-0.8-0.8-1.1-1.8-1.1-2.9c0-1.1,0.5-2.1,1.3-2.9
			c1.6-1.5,4.3-1.4,5.8,0.1c0,0,0,0,0,0c0,0,0,0,0,0c-0.7-0.9-1-1.9-0.8-3c0.1-1.1,0.7-2,1.6-2.7c1.7-1.4,4.4-1,5.7,0.7c0,0,0,0,0,0
			c0,0,0,0,0,0c-0.6-0.9-0.8-2-0.5-3.1c0.2-1.1,0.9-2,1.8-2.5c1.8-1.2,4.5-0.6,5.6,1.3c0,0,0,0,0,0c0,0,0,0,0,0
			c-1-2-0.2-4.5,1.8-5.5c2-1,4.5-0.1,5.5,1.8l0,0c0,0,0,0,0,0c-0.4-1-0.4-2.1,0.1-3.1c0.4-1,1.2-1.8,2.3-2.2
			c2.1-0.8,4.5,0.3,5.3,2.4c0,0,0,0,0,0.1c0,0,0,0,0-0.1c-0.3-1-0.1-2.2,0.4-3.1c0.5-0.9,1.4-1.6,2.5-1.9c2.1-0.6,4.4,0.7,5,2.9
			c0,0,0,0,0,0s0,0,0,0c-0.4-2.2,1.1-4.3,3.3-4.7c2.3-0.4,4.3,1.1,4.7,3.3c0,0,0,0,0,0.1c0,0,0,0,0-0.1c-0.1-2.3,1.6-4.2,3.8-4.4
			c2.3-0.1,4.2,1.6,4.3,3.8c0,0,0,0.1,0,0.1c0,0,0-0.1,0-0.1c0-2.2,1.8-4,4.1-4c1.2,0,2.2,0.5,3,1.3c0.8,0.8,1.1,1.8,1.1,2.9
			c0,0,0,0,0,0c0,0,0,0,0,0c0.3-2.2,2.3-3.8,4.6-3.5c1.1,0.1,2,0.7,2.7,1.6c0.7,0.9,1,1.9,0.8,3c0,0,0,0,0,0.1c0,0,0,0,0-0.1
			c0.5-2.2,2.7-3.6,4.9-3.1c1.1,0.2,2,0.9,2.5,1.8c0.6,0.9,0.8,2,0.5,3.1c0,0,0,0,0,0s0,0,0,0c0.7-2.1,3.1-3.3,5.2-2.6
			c2.1,0.7,3.3,3,2.6,5.2c0,0,0,0,0,0.1c0,0,0,0,0-0.1c0.9-2,3.4-2.9,5.4-2c2.1,0.9,3,3.4,2,5.4c0,0,0,0,0,0.1c0,0,0,0,0-0.1
			c1.1-1.9,3.7-2.6,5.6-1.5c1.9,1.1,2.6,3.6,1.5,5.6c0,0,0,0.1-0.1,0.1c0,0,0-0.1,0.1-0.1c1.3-1.8,3.9-2.2,5.7-0.9
			c1.8,1.3,2.3,3.9,0.9,5.7c0,0,0,0,0,0.1c0,0,0,0,0-0.1c1.4-1.6,4.1-1.8,5.8-0.4c0.8,0.7,1.3,1.7,1.4,2.8c0.1,1.1-0.3,2.1-1,3
			c0,0,0,0,0,0.1c0,0,0,0,0-0.1c1.6-1.5,4.3-1.4,5.8,0.2c1.5,1.6,1.5,4.2-0.2,5.8c0,0,0,0,0,0c0,0,0,0,0.1,0c1.7-1.3,4.4-1,5.7,0.8
			c1.4,1.8,1,4.3-0.8,5.7c0,0,0,0,0,0c0,0,0,0,0,0c0.6-0.4,1.4-0.6,2.1-0.6c1.4,0,2.7,0.7,3.5,1.9c0.6,0.9,0.8,2,0.5,3.1
			c-0.2,1.1-0.9,2-1.8,2.5c0,0,0,0,0,0c0,0,0,0,0.1,0c0.6-0.3,1.2-0.4,1.8-0.4c1.6,0,3,0.9,3.7,2.3c0.5,1,0.6,2.1,0.2,3.1
			c-0.3,1-1.1,1.9-2.1,2.3c0,0,0,0,0,0c0,0,0,0,0,0c2.1-0.8,4.5,0.4,5.3,2.4c0.8,2.1-0.3,4.5-2.4,5.3c0,0,0,0,0,0c0,0,0,0,0,0
			c2.1-0.6,4.4,0.8,5,2.9c0.6,2.2-0.7,4.4-2.9,5c0,0,0,0,0,0c0,0,0,0,0,0c2.3-0.4,4.3,1.2,4.7,3.4c0.2,1.1-0.1,2.2-0.7,3
			c-0.6,0.9-1.6,1.5-2.7,1.6h0h0h0.2c2.2,0,4,1.7,4.1,3.8c0,0.9-0.2,1.9-0.8,2.6c0.6,0.7,0.9,1.6,0.9,2.5c0,0,0,0,0,0
			c0,2.3-1.9,4.1-4.1,4.1h0c1.1,0.1,2.1,0.6,2.8,1.5c0.7,0.8,1,1.9,0.9,3c-0.2,2.2-2.2,3.9-4.5,3.7c0,0,0,0,0,0c0,0,0,0,0.1,0
			c2.2,0.4,3.6,2.6,3.2,4.8c-0.4,2.2-2.6,3.7-4.8,3.2c0,0,0,0,0,0c0,0,0,0,0,0c1,0.3,1.9,1,2.4,2c0.5,1,0.6,2.1,0.3,3.1
			c-0.5,1.7-2.1,2.9-3.9,2.9c-0.4,0-0.8,0-1.2-0.2c0,0,0,0-0.1,0c0,0,0,0,0.1,0c1,0.4,1.8,1.2,2.2,2.2c0.4,1,0.4,2.1,0,3.1
			c-0.6,1.5-2.1,2.5-3.8,2.5h0c-0.5,0-1.1-0.1-1.6-0.3c0,0,0,0-0.1,0c0,0,0,0,0.1,0c1,0.5,1.7,1.4,2,2.4c0.3,1,0.2,2.1-0.3,3.1
			c-0.7,1.3-2.1,2.1-3.6,2.1c-0.7,0-1.3-0.2-1.9-0.5c0,0-0.1,0-0.1-0.1c0,0,0.1,0,0.1,0.1c0.9,0.6,1.5,1.5,1.7,2.6
			c0.2,1.1,0,2.2-0.6,3.1c-1.2,1.8-3.9,2.3-5.7,1.1c0,0,0,0,0,0c0,0,0,0,0,0c1.7,1.4,2,4,0.5,5.8c-1.4,1.7-4.1,1.9-5.8,0.5
			c0,0,0,0,0,0c0,0,0,0,0,0c1.6,1.6,1.6,4.2,0,5.8c-1.6,1.5-4.2,1.5-5.8,0c0,0,0,0-0.1-0.1c0,0,0,0,0.1,0.1c1.4,1.7,1.1,4.3-0.6,5.7
			c-1.7,1.4-4.4,1.1-5.8-0.6l0,0c0,0,0,0,0,0c0.6,0.9,0.8,2,0.6,3.1c-0.2,1.1-0.8,2-1.7,2.6c-1.8,1.2-4.5,0.7-5.7-1.1c0,0,0,0,0,0
			c0,0,0,0,0,0c1,2,0.3,4.5-1.7,5.5c-0.6,0.3-1.2,0.5-1.9,0.5c-1.5,0-2.9-0.8-3.6-2.2c0,0,0,0,0,0c0,0,0,0,0,0
			c0.8,2.1-0.2,4.5-2.3,5.3c-2,0.8-4.5-0.2-5.3-2.3c0,0,0,0,0,0c0,0,0,0,0,0c0.3,1,0.2,2.2-0.3,3.1c-0.5,0.9-1.4,1.7-2.4,2
			c-2.1,0.6-4.5-0.7-5.1-2.8c0,0,0-0.1,0-0.1c0,0,0,0.1,0,0.1c0.2,1.1,0,2.2-0.6,3.1c-0.6,0.9-1.5,1.5-2.6,1.7
			c-0.3,0-0.5,0.1-0.8,0.1l0,0c-1.9,0-3.6-1.4-4-3.3c0,0,0,0,0,0c0,0,0,0,0,0c0.1,1.1-0.2,2.2-0.9,3c-0.7,0.8-1.7,1.4-2.8,1.4
			c-2.2,0.2-4.2-1.5-4.4-3.7c0,0,0,0,0,0c0,0,0,0,0,0C220.8,244,218.9,245.8,216.7,245.8L216.7,245.8z M216.7,237.7
			c2.2,0,3.9,1.7,4.1,3.8c0-0.9,0.3-1.9,0.9-2.6c0.7-0.8,1.7-1.4,2.8-1.5c2.1-0.2,4,1.3,4.4,3.3c-0.1-0.9,0.1-1.9,0.7-2.7
			c0.6-0.9,1.6-1.5,2.6-1.7c2.1-0.4,4.1,0.9,4.7,2.9c-0.2-0.9-0.1-1.9,0.4-2.8c0.5-0.9,1.4-1.6,2.4-1.9c0,0,0,0,0,0
			c2-0.6,4.2,0.5,5,2.4c-0.3-0.9-0.2-1.9,0.1-2.8c0.4-1,1.2-1.8,2.2-2.2c1.9-0.8,4.2,0.1,5.2,1.9c-0.8-1.9,0-4.2,1.9-5.2
			c1.8-1,4.2-0.3,5.3,1.4c-1-1.8-0.4-4.2,1.3-5.4c1.7-1.1,4.2-0.7,5.4,0.8c-1.2-1.7-0.8-4.1,0.8-5.4c1.6-1.3,4.1-1.1,5.5,0.4
			c-0.6-0.7-1-1.7-1-2.7c0-1.1,0.4-2.1,1.2-2.9c1.5-1.5,4-1.5,5.5-0.2c-0.7-0.7-1.1-1.6-1.2-2.5c-0.1-1.1,0.2-2.1,0.9-3
			c1.3-1.6,3.8-1.9,5.5-0.7c-0.8-0.6-1.3-1.5-1.5-2.4c-0.2-1.1,0-2.2,0.6-3.1c1.2-1.7,3.6-2.3,5.4-1.3c-0.8-0.5-1.4-1.3-1.7-2.3
			c-0.3-1-0.2-2.2,0.3-3.1c1-1.8,3.3-2.6,5.2-1.8c-0.9-0.4-1.5-1.2-1.9-2.1c-0.4-1-0.4-2.1,0-3.1c0.8-1.9,3.1-3,5-2.3
			c-0.9-0.3-1.6-1-2.1-1.9c-0.5-1-0.6-2.1-0.3-3.1c0.6-2,2.7-3.2,4.7-2.8c-0.9-0.3-1.7-0.8-2.2-1.6c-0.6-0.9-0.8-2-0.6-3.1
			c0.4-2.1,2.3-3.5,4.4-3.3c-0.9-0.2-1.8-0.7-2.4-1.4c-0.7-0.8-1-1.9-0.9-3c0.2-2.1,2-3.7,4.1-3.7c-2.1-0.2-3.7-1.9-3.7-4.1
			c0-0.8,0.3-1.7,0.8-2.4c-0.6-0.7-0.9-1.5-0.9-2.3c-0.1-1.1,0.3-2.1,1-3c0.6-0.7,1.5-1.2,2.4-1.3c-2.1,0.1-4-1.3-4.3-3.4
			c-0.2-1.1,0.1-2.2,0.7-3c0.6-0.8,1.4-1.3,2.3-1.6c-2.1,0.3-4.1-1-4.6-3c-0.3-1.1-0.1-2.2,0.4-3.1c0.5-0.8,1.2-1.5,2.1-1.8
			c-2,0.5-4.2-0.6-4.9-2.5c-0.4-1-0.3-2.1,0.1-3.1c0.4-0.9,1.1-1.6,1.9-2c-0.5,0.2-1,0.3-1.5,0.3c-1.6,0-3-0.9-3.7-2.3
			c-0.5-1-0.6-2.1-0.2-3.1c0.3-0.9,0.9-1.7,1.8-2.2c-1.8,0.9-4.2,0.3-5.3-1.5c-0.6-0.9-0.8-2-0.5-3.1c0.2-0.9,0.8-1.8,1.5-2.3
			c-1.7,1.1-4.2,0.7-5.4-1c-0.7-0.9-0.9-1.9-0.8-3c0.1-1,0.6-1.8,1.3-2.5c-1.6,1.3-4.1,1.1-5.5-0.4c-0.8-0.8-1.1-1.8-1.1-2.9
			c0-1,0.4-1.9,1.1-2.6c-1.5,1.4-4,1.5-5.5,0.1c-0.8-0.7-1.3-1.7-1.4-2.8c-0.1-1,0.2-1.9,0.8-2.7c-1.3,1.6-3.8,1.9-5.5,0.7
			c-0.9-0.6-1.5-1.6-1.7-2.7c-0.2-1,0-2,0.6-2.8c-1.1,1.7-3.6,2.3-5.4,1.3c-0.9-0.6-1.6-1.4-1.9-2.5c-0.2-0.9-0.2-1.9,0.2-2.8
			c-1,1.8-3.3,2.6-5.2,1.7c-1-0.4-1.7-1.3-2.1-2.3c-0.3-0.9-0.3-1.9,0-2.8c-0.8,1.9-3.1,2.9-5,2.2c-1-0.3-1.9-1.1-2.4-2.1
			c-0.4-0.8-0.5-1.8-0.3-2.7c-0.7,1.9-2.7,3.2-4.8,2.7c-2.1-0.5-3.4-2.5-3.1-4.6c-0.4,2-2.4,3.5-4.5,3.2c-2.1-0.3-3.6-2.1-3.6-4.2
			c-0.2,2-2,3.6-4.1,3.6c0,0-0.1,0-0.1,0c-2.1,0-3.9-1.8-4-3.9c0,1-0.4,1.9-1,2.6c-0.7,0.8-1.7,1.3-2.8,1.4c-2.1,0.2-4-1.4-4.3-3.4
			c0.1,1-0.2,1.9-0.8,2.7c-0.6,0.9-1.6,1.5-2.6,1.7c-2.1,0.4-4.1-1-4.6-3c0.4,2.1-0.9,4.1-2.9,4.7c-2,0.6-4.2-0.6-4.9-2.5
			c0.3,0.9,0.2,1.9-0.2,2.8c-0.4,1-1.2,1.8-2.3,2.2c-1.9,0.7-4.2-0.2-5.1-2c0.8,1.9-0.1,4.2-2,5.1c-1.9,0.9-4.2,0.2-5.3-1.5
			c0.4,0.9,0.6,1.8,0.4,2.8c-0.2,1.1-0.9,2-1.8,2.5c-1.7,1.1-4.2,0.7-5.4-1c0.5,0.8,0.8,1.7,0.6,2.7c-0.1,1.1-0.7,2.1-1.5,2.7
			c-0.7,0.6-1.6,0.9-2.5,0.9l0,0c-1.1,0-2.2-0.5-3-1.3c1.3,1.6,1.2,4-0.4,5.5c-1.5,1.4-4,1.5-5.5,0.1c0.7,0.7,1.1,1.6,1.2,2.6
			c0.1,1.1-0.3,2.1-1,3c-1.3,1.6-3.9,1.8-5.5,0.6c1.6,1.3,2,3.7,0.8,5.5c-1.2,1.7-3.7,2.2-5.4,1.2c1.7,1.2,2.3,3.5,1.3,5.4
			c-1,1.8-3.4,2.6-5.3,1.7c1.8,1,2.7,3.3,1.8,5.2c-0.8,1.9-3.1,2.9-5.1,2.2c1.9,0.8,3,3,2.3,5c-0.6,2-2.8,3.2-4.8,2.7
			c0.9,0.3,1.7,0.9,2.2,1.7c0.6,0.9,0.8,2,0.6,3.1c-0.4,2-2.4,3.4-4.5,3.2c2,0.4,3.4,2.4,3.2,4.5c-0.2,2.1-2.1,3.7-4.2,3.6
			c2.2,0.2,3.8,2,3.7,4.1c0,2.1-1.7,3.8-3.8,4c2.1,0,3.9,1.7,4,3.8c0.2,2.1-1.3,4-3.3,4.3c2.1-0.2,4,1.3,4.3,3.3
			c0.4,2.1-0.9,4.1-2.9,4.7c2-0.4,4.1,0.9,4.7,2.9c0.3,1,0.2,2.1-0.4,3.1c-0.5,0.8-1.2,1.5-2.1,1.8c2-0.6,4.2,0.5,5,2.4
			c0.8,2-0.1,4.2-2,5.2c1.9-0.8,4.2,0.1,5.2,1.9c0.5,1,0.6,2.1,0.3,3.1c-0.3,0.9-0.9,1.7-1.7,2.2c1.8-0.9,4.2-0.3,5.3,1.4
			c0.6,0.9,0.8,2,0.6,3.1c-0.2,1-0.7,1.8-1.5,2.4c1.7-1.2,4.2-0.8,5.5,0.8c0.7,0.9,1,1.9,0.9,3c-0.1,1-0.6,1.9-1.3,2.5
			c1.6-1.3,4.1-1.2,5.5,0.3c1.5,1.5,1.5,3.9,0.2,5.5c1.4-1.4,4-1.6,5.5-0.2c1.6,1.4,1.9,3.8,0.7,5.5c1.3-1.6,3.8-2,5.5-0.8
			c1.7,1.2,2.3,3.6,1.2,5.4c1.1-1.7,3.6-2.3,5.4-1.3c1,0.5,1.6,1.4,2,2.5c0.3,0.9,0.2,1.9-0.2,2.8c0.9-1.8,3.3-2.6,5.2-1.8
			c1,0.4,1.8,1.2,2.2,2.2c0.4,0.9,0.4,1.9,0.1,2.8c0.8-1.9,3-3,5-2.4c1,0.3,1.9,1,2.4,2c0.4,0.9,0.6,1.8,0.4,2.8
			c0.6-2,2.7-3.2,4.7-2.8c2.1,0.4,3.5,2.4,3.2,4.5c0.4-2,2.3-3.5,4.4-3.3c2.1,0.2,3.7,2,3.7,4.1
			C212.8,239.3,214.6,237.7,216.7,237.7L216.7,237.7z"/>
	</g>
	<g>
		<polygon class="st2" points="273.8,208.9 161.2,208.9 161.2,207.8 273.8,207.8 273.8,208.9 		"/>
	</g>
	<g>
		<polygon class="st2" points="273.8,180.6 161.2,180.6 161.2,179.5 273.8,179.5 273.8,180.6 		"/>
	</g>
	<g>
		<g>
			<g>
				<path class="st2" d="M162.8,123.6c6.2,0,7.6-3,8.9-6.5h5.4v51.4H169v-39.2h-6.2V123.6z"/>
				<path class="st2" d="M185.8,129.5c0-8.2,4.3-12.9,12.3-12.9c7.9,0,12.3,4.7,12.3,12.9v26.7c0,8.2-4.3,12.9-12.3,12.9
					c-7.9,0-12.3-4.7-12.3-12.9V129.5z M193.9,156.7c0,3.7,1.6,5.1,4.2,5.1c2.6,0,4.2-1.4,4.2-5.1V129c0-3.7-1.6-5.1-4.2-5.1
					c-2.6,0-4.2,1.4-4.2,5.1V156.7z"/>
				<path class="st2" d="M218.6,129.5c0-8.2,4.3-12.9,12.3-12.9c7.9,0,12.3,4.7,12.3,12.9v26.7c0,8.2-4.3,12.9-12.3,12.9
					c-7.9,0-12.3-4.7-12.3-12.9V129.5z M226.7,156.7c0,3.7,1.6,5.1,4.2,5.1c2.6,0,4.2-1.4,4.2-5.1V129c0-3.7-1.6-5.1-4.2-5.1
					c-2.6,0-4.2,1.4-4.2,5.1V156.7z"/>
			</g>
			<g>
				<path class="st11" d="M164.8,123.6c6.2,0,7.6-3,8.9-6.5h5.4v51.4h-8.1v-39.2h-6.2V123.6z"/>
				<path class="st11" d="M187.9,129.5c0-8.2,4.3-12.9,12.3-12.9c7.9,0,12.3,4.7,12.3,12.9v26.7c0,8.2-4.3,12.9-12.3,12.9
					c-7.9,0-12.3-4.7-12.3-12.9V129.5z M196,156.7c0,3.7,1.6,5.1,4.2,5.1c2.6,0,4.2-1.4,4.2-5.1V129c0-3.7-1.6-5.1-4.2-5.1
					c-2.6,0-4.2,1.4-4.2,5.1V156.7z"/>
				<path class="st11" d="M220.6,129.5c0-8.2,4.3-12.9,12.3-12.9c7.9,0,12.3,4.7,12.3,12.9v26.7c0,8.2-4.3,12.9-12.3,12.9
					c-7.9,0-12.3-4.7-12.3-12.9V129.5z M228.7,156.7c0,3.7,1.6,5.1,4.2,5.1c2.6,0,4.2-1.4,4.2-5.1V129c0-3.7-1.6-5.1-4.2-5.1
					c-2.6,0-4.2,1.4-4.2,5.1V156.7z"/>
			</g>
			<g>
				<path class="st14" d="M166.9,125.6c6.2,0,7.6-3,8.9-6.5h5.4v51.4h-8.1v-39.2h-6.2V125.6z"/>
				<path class="st14" d="M189.9,131.5c0-8.2,4.3-12.9,12.3-12.9c7.9,0,12.3,4.7,12.3,12.9v26.7c0,8.2-4.3,12.9-12.3,12.9
					c-7.9,0-12.3-4.7-12.3-12.9V131.5z M198,158.8c0,3.7,1.6,5.1,4.2,5.1c2.6,0,4.2-1.4,4.2-5.1V131c0-3.7-1.6-5.1-4.2-5.1
					c-2.6,0-4.2,1.4-4.2,5.1V158.8z"/>
				<path class="st14" d="M222.7,131.5c0-8.2,4.3-12.9,12.3-12.9c7.9,0,12.3,4.7,12.3,12.9v26.7c0,8.2-4.3,12.9-12.3,12.9
					c-7.9,0-12.3-4.7-12.3-12.9V131.5z M230.8,158.8c0,3.7,1.6,5.1,4.2,5.1c2.6,0,4.2-1.4,4.2-5.1V131c0-3.7-1.6-5.1-4.2-5.1
					c-2.6,0-4.2,1.4-4.2,5.1V158.8z"/>
			</g>
		</g>
		<g>
			<g>
				<path class="st2" d="M250.2,121.4c0-3.1,1.6-4.8,4.5-4.8c3,0,4.5,1.7,4.5,4.8v9.9c0,3.1-1.6,4.8-4.5,4.8c-3,0-4.5-1.7-4.5-4.8
					V121.4z M253.2,131.5c0,1.3,0.6,1.9,1.5,1.9c0.9,0,1.5-0.6,1.5-1.9v-10.3c0-1.3-0.6-1.9-1.5-1.9c-1,0-1.5,0.6-1.5,1.9V131.5z
					 M266.5,116.8h2.8l-11.8,30h-2.8L266.5,116.8z M265,132.4c0-3.1,1.6-4.8,4.5-4.8c3,0,4.5,1.7,4.5,4.8v9.9c0,3.1-1.6,4.8-4.5,4.8
					c-3,0-4.5-1.7-4.5-4.8V132.4z M268,142.4c0,1.3,0.6,1.9,1.5,1.9c0.9,0,1.5-0.6,1.5-1.9v-10.3c0-1.3-0.6-1.9-1.5-1.9
					c-1,0-1.5,0.6-1.5,1.9V142.4z"/>
			</g>
			<g>
				<path class="st11" d="M252.2,121.4c0-3.1,1.6-4.8,4.5-4.8c3,0,4.5,1.7,4.5,4.8v9.9c0,3.1-1.6,4.8-4.5,4.8c-3,0-4.5-1.7-4.5-4.8
					V121.4z M255.2,131.5c0,1.3,0.6,1.9,1.5,1.9c0.9,0,1.5-0.6,1.5-1.9v-10.3c0-1.3-0.6-1.9-1.5-1.9c-1,0-1.5,0.6-1.5,1.9V131.5z
					 M268.6,116.8h2.8l-11.8,30h-2.8L268.6,116.8z M267.1,132.4c0-3.1,1.6-4.8,4.5-4.8c3,0,4.5,1.7,4.5,4.8v9.9
					c0,3.1-1.6,4.8-4.5,4.8c-3,0-4.5-1.7-4.5-4.8V132.4z M270.1,142.4c0,1.3,0.6,1.9,1.5,1.9c0.9,0,1.5-0.6,1.5-1.9v-10.3
					c0-1.3-0.6-1.9-1.5-1.9c-1,0-1.5,0.6-1.5,1.9V142.4z"/>
			</g>
			<g>
				<path class="st14" d="M254.2,123.4c0-3.1,1.6-4.8,4.5-4.8c3,0,4.5,1.7,4.5,4.8v9.9c0,3.1-1.6,4.8-4.5,4.8c-3,0-4.5-1.7-4.5-4.8
					V123.4z M257.2,133.5c0,1.3,0.6,1.9,1.5,1.9c0.9,0,1.5-0.6,1.5-1.9v-10.3c0-1.3-0.6-1.9-1.5-1.9c-1,0-1.5,0.6-1.5,1.9V133.5z
					 M270.6,118.8h2.8l-11.8,30h-2.8L270.6,118.8z M269.1,134.4c0-3.1,1.6-4.8,4.5-4.8c3,0,4.5,1.7,4.5,4.8v9.9
					c0,3.1-1.6,4.8-4.5,4.8c-3,0-4.5-1.7-4.5-4.8V134.4z M272.1,144.5c0,1.3,0.6,1.9,1.5,1.9c0.9,0,1.5-0.6,1.5-1.9v-10.3
					c0-1.3-0.6-1.9-1.5-1.9c-1,0-1.5,0.6-1.5,1.9V144.5z"/>
			</g>
		</g>
	</g>
	<g>
		<g>
			<g>
				<path class="st11" d="M123.3,117.7l-3.2-1.5c-11.7,26.5-12,57.5-1.1,83.8C109.1,173.2,110.9,142.8,123.3,117.7z"/>
				<path class="st11" d="M115.5,114.1c-12.3,27.7-12.6,60.1-1.2,87.7c-10.3-28-8.5-59.9,4.5-86.2L115.5,114.1z"/>
				<path class="st11" d="M111,112c-12.9,28.9-13.2,62.8-1.4,91.6c-10.8-29.3-8.9-62.6,4.6-90.1L111,112z"/>
			</g>
		</g>
		<g>
			<g>
				<path class="st11" d="M311.7,117.7l3.2-1.5c11.7,26.5,12,57.5,1.1,83.8C325.9,173.2,324.1,142.8,311.7,117.7z"/>
				<path class="st11" d="M319.5,114.1c12.3,27.7,12.6,60.1,1.2,87.7c10.3-28,8.5-59.9-4.5-86.2L319.5,114.1z"/>
				<path class="st11" d="M324,112c12.9,28.9,13.3,62.8,1.4,91.6c10.8-29.3,8.9-62.6-4.6-90.1L324,112z"/>
			</g>
		</g>
	</g>
	<g>
		<path class="st2" d="M167,188.9h2.7c0.9,0,3.3,0,3.3,3c0,2-1.3,3-3,3h-1.6v4.4H167V188.9z M168.3,193.9h1.5c0.9,0,1.7-0.6,1.7-2
			c0-1.2-0.5-1.9-1.8-1.9h-1.5V193.9z"/>
		<path class="st2" d="M174.1,188.9h3.4c1.7,0,2.7,1,2.7,2.6c0,1.1-0.4,2.4-1.6,2.6v0c0.9,0.1,1.4,0.9,1.5,1.8l0.1,1.8
			c0,1.2,0.2,1.5,0.6,1.6h-1.6c-0.2-0.2-0.3-1-0.4-1.5l-0.1-1.6c-0.1-1.4-0.9-1.5-1.6-1.5h-1.8v4.7h-1.3V188.9z M175.4,193.7h1.3
			c0.8,0,2.2,0,2.2-2c0-1-0.7-1.7-1.9-1.7h-1.5V193.7z"/>
		<path class="st2" d="M181.7,188.9h5.4v1.1H183v3.3h3.9v1.1H183v3.8h4.3v1.1h-5.6V188.9z"/>
		<path class="st2" d="M188.5,188.9h2.2l2.1,8.3h0l2.1-8.3h2.2v10.5h-1.3v-9.2h0l-2.3,9.2h-1.3l-2.3-9.2h0v9.2h-1.3V188.9z"/>
		<path class="st2" d="M198.9,188.9h1.3v10.5h-1.3V188.9z"/>
		<path class="st2" d="M201.8,188.9h1.3v7.4c0,1.5,0.5,2.3,1.8,2.3c1.4,0,1.8-0.8,1.8-2.3v-7.4h1.3v7.4c0,2-1,3.3-3.1,3.3
			c-2.1,0-3.1-1.1-3.1-3.3V188.9z"/>
		<path class="st2" d="M209.5,188.9h2.2l2.1,8.3h0l2.1-8.3h2.2v10.5h-1.3v-9.2h0l-2.3,9.2h-1.3l-2.3-9.2h0v9.2h-1.3V188.9z"/>
		<path class="st2" d="M228.4,199.1c-0.5,0.3-1.1,0.5-1.8,0.5c-2.9,0-3.4-2.8-3.4-5.5c0-2.6,0.5-5.5,3.4-5.5c2.9,0,3.4,2.8,3.4,5.5
			c0,1.5-0.1,3.1-0.9,4.1l1.1,1l-0.7,0.8L228.4,199.1z M226.6,197.4l0.7-0.8l1,0.9c0.3-0.8,0.4-2,0.4-3.3c0-2.4-0.2-4.4-2-4.4
			c-1.8,0-2,2-2,4.4c0,2.4,0.2,4.4,2,4.4c0.4,0,0.7-0.1,1-0.2L226.6,197.4z"/>
		<path class="st2" d="M231.4,188.9h1.3v7.4c0,1.5,0.5,2.3,1.8,2.3c1.4,0,1.8-0.8,1.8-2.3v-7.4h1.3v7.4c0,2-1,3.3-3.1,3.3
			c-2.1,0-3.1-1.1-3.1-3.3V188.9z"/>
		<path class="st2" d="M241.2,188.9h1.7l2.8,10.5h-1.4l-0.7-2.9h-3.4l-0.8,2.9h-1.4L241.2,188.9z M240.6,195.5h2.8l-1.3-5.1h0
			L240.6,195.5z"/>
		<path class="st2" d="M246.5,188.9h1.3v9.4h4.3v1.1h-5.6V188.9z"/>
		<path class="st2" d="M253.1,188.9h1.3v10.5h-1.3V188.9z"/>
		<path class="st2" d="M259.3,199.5H258v-9.4h-2.6v-1.1h6.6v1.1h-2.6V199.5z"/>
		<path class="st2" d="M262,188.9h1.4l2,4.9l2.1-4.9h1.4l-2.8,6.4v4.1h-1.3v-4.1L262,188.9z"/>
	</g>
	<g>
		<polygon class="st2" points="194.8,91.1 196.7,96.8 202.6,96.8 197.8,100.3 199.6,106 194.8,102.5 190,106 191.8,100.3 187,96.8 
			193,96.8 		"/>
		<polygon class="st2" points="214.3,85.9 216.1,91.6 222.1,91.6 217.3,95.1 219.1,100.7 214.3,97.2 209.5,100.7 211.3,95.1 
			206.5,91.6 212.4,91.6 		"/>
		<polygon class="st2" points="233.8,91.1 235.6,96.8 241.6,96.8 236.7,100.3 238.6,106 233.8,102.5 228.9,106 230.8,100.3 
			225.9,96.8 231.9,96.8 		"/>
	</g>
</g>
</svg>
